Coordinates
version=1
nRows=23
nColumns=28
inDegrees=yes

Units are S.I. units (second, meters, Newtons, ...)
Angles are in degrees.

endheader
time	pelvis_tilt	pelvis_list	pelvis_rotation	pelvis_tx	pelvis_ty	pelvis_tz	hip_flexion_r	hip_adduction_r	hip_rotation_r	knee_angle_r	ankle_angle_r	subtalar_angle_r	mtp_angle_r	hip_flexion_l	hip_adduction_l	hip_rotation_l	knee_angle_l	socket_flexion	socket_adduction	socket_rotation	socket_tx	socket_ty	socket_tz	foot_flex	lumbar_extension	lumbar_bending	lumbar_rotation
      0.96666667	      8.58572499	      1.88794940	     -5.27388585	      0.39478899	      1.03210141	      0.28513217	     -0.07178417	      2.60621781	      2.24775821	    -23.48613253	     10.39974413	     -3.78975356	     32.30459829	     -3.70933138	      1.64915234	     -2.18326630	    -52.73533110	      0.00000000	      0.00000000	      0.00000000	      0.00000000	      0.00000000	      0.00000000	      4.40113458	    -16.06953853	     -2.47893814	     10.90393060
      0.97083333	      8.53108795	      2.10520344	     -5.48426333	      0.39960542	      1.03303440	      0.28564839	     -0.54801579	      2.30491988	      2.38221712	    -22.94763424	     10.31187269	     -3.47979929	     32.37655691	     -3.15030830	      1.84848677	     -2.05330000	    -52.30854630	      0.00000000	      0.00000000	      0.00000000	      0.00000000	      0.00000000	      0.00000000	      4.36599219	    -15.93020579	     -2.81574852	     10.99903089
      0.97500000	      8.55389647	      2.10775435	     -5.72963949	      0.40364852	      1.03387972	      0.28610767	     -0.83994247	      2.21412832	      2.32937518	    -22.90124581	     10.29898295	     -3.42840250	     32.38975931	     -2.59815925	      1.81224809	     -1.99150470	    -51.99129552	      0.00000000	      0.00000000	      0.00000000	      0.00000000	      0.00000000	      0.00000000	      4.38916788	    -16.05142229	     -2.85729372	     11.02619399
      0.97916667	      8.54431862	      2.16389797	     -5.97651323	      0.40787024	      1.03470936	      0.28654874	     -1.17386626	      2.06642371	      2.32914659	    -22.69049871	     10.25861614	     -3.29475216	     32.41365530	     -2.04770129	      1.84691245	     -1.91008182	    -51.57633963	      0.00000000	      0.00000000	      0.00000000	      0.00000000	      0.00000000	      0.00000000	      4.40327190	    -16.09531371	     -2.96965481	     11.09090408
      0.98333333	      8.44823951	      2.36849581	     -6.23658266	      0.41290146	      1.03553619	      0.28711324	     -1.64679142	      1.77123368	      2.53622746	    -22.08003769	     10.07717910	     -2.80090982	     32.50407808	     -1.54647402	      2.05955106	     -1.72938421	    -50.92374688	      0.00000000	      0.00000000	      0.00000000	      0.00000000	      0.00000000	      0.00000000	      4.31509969	    -15.84351534	     -3.30829595	     11.34234180
      0.98750000	      8.40585832	      2.43103629	     -6.54063325	      0.41728163	      1.03626417	      0.28764797	     -1.96124692	      1.61028404	      2.59711940	    -21.84178738	      9.92769556	     -2.35465770	     32.62783783	     -1.02198230	      2.11380982	     -1.63224049	    -50.38637393	      0.00000000	      0.00000000	      0.00000000	      0.00000000	      0.00000000	      0.00000000	      4.25553233	    -15.79739940	     -3.46145866	     11.63324500
      0.99166667	      8.35173545	      2.49305216	     -6.83093923	      0.42161147	      1.03690067	      0.28818732	     -2.25750301	      1.44486730	      2.63078147	    -21.60331275	      9.82766868	     -1.82593652	     32.82555753	     -0.48304240	      2.14724177	     -1.56541730	    -49.83052030	      0.00000000	      0.00000000	      0.00000000	      0.00000000	      0.00000000	      0.00000000	      4.22800343	    -15.74271353	     -3.64318111	     11.99245353
      0.99583333	      8.26011452	      2.62119505	     -7.21029959	      0.42589471	      1.03730211	      0.28866574	     -2.29987714	      1.12970882	      2.34515565	    -21.73846885	      9.90334474	     -0.51481774	     33.96004553	      0.08463755	      2.27493668	     -1.54088469	    -49.23216090	      0.00000000	      0.00000000	      0.00000000	      0.00000000	      0.00000000	      0.00000000	      4.19734295	    -15.63682776	     -3.90335049	     12.65441915
      1.00000000	      8.20187840	      2.64349558	     -7.42872872	      0.43022659	      1.03789579	      0.28909750	     -2.63061342	      1.02826665	      2.39129019	    -21.44369690	      9.80581850	     -0.36565835	     34.04520336	      0.59976868	      2.27859949	     -1.34226329	    -48.60160879	      0.00000000	      0.00000000	      0.00000000	      0.00000000	      0.00000000	      0.00000000	      4.17818323	    -15.59663733	     -3.98181569	     12.68522677
      1.00416667	      8.12621013	      2.64845037	     -7.66335752	      0.43450099	      1.03842868	      0.28954180	     -2.93890470	      0.94821557	      2.47736937	    -21.14933966	      9.63621613	     -0.11470347	     34.19946404	      1.12680271	      2.25998360	     -1.14766642	    -47.94696938	      0.00000000	      0.00000000	      0.00000000	      0.00000000	      0.00000000	      0.00000000	      4.13738687	    -15.54294121	     -4.05380352	     12.83936989
      1.00833333	      8.04259520	      2.64368882	     -7.90948264	      0.43879719	      1.03889625	      0.28997596	     -3.22370225	      0.87431802	      2.54958896	    -20.88990258	      9.52486823	      0.10858794	     34.36331296	      1.63810291	      2.23233449	     -0.96415403	    -47.24558707	      0.00000000	      0.00000000	      0.00000000	      0.00000000	      0.00000000	      0.00000000	      4.10548914	    -15.47142981	     -4.10602363	     13.02148613
      1.01250000	      8.00607165	      2.59831904	     -8.15371517	      0.44287080	      1.03931540	      0.29042574	     -3.46967425	      0.84051777	      2.56282511	    -20.81170490	      9.50567298	      0.18072532	     34.40167028	      2.10202812	      2.16521045	     -0.74290169	    -46.53550053	      0.00000000	      0.00000000	      0.00000000	      0.00000000	      0.00000000	      0.00000000	      4.11285365	    -15.48909388	     -4.10767779	     13.07369365
      1.01666667	      7.88978491	      2.59667657	     -8.36411761	      0.44727544	      1.03967400	      0.29087505	     -3.79116149	      0.77810012	      2.68228362	    -20.41880992	      9.41322324	      0.40572858	     34.48555570	      2.61719463	      2.12858822	     -0.51844696	    -45.76925080	      0.00000000	      0.00000000	      0.00000000	      0.00000000	      0.00000000	      0.00000000	      4.02697497	    -15.37181465	     -4.17386038	     13.23612867
      1.02083333	      7.80216592	      2.54445711	     -8.59259763	      0.45140033	      1.03999963	      0.29129631	     -4.04705318	      0.76628651	      2.76644462	    -20.21486061	      9.32739416	      0.56876676	     34.55557218	      3.11221481	      2.04276034	     -0.27302793	    -44.99439526	      0.00000000	      0.00000000	      0.00000000	      0.00000000	      0.00000000	      0.00000000	      3.99420308	    -15.32443262	     -4.17183988	     13.37816319
      1.02500000	      7.60459420	      2.45700293	     -8.84201209	      0.45561498	      1.04013989	      0.29181280	     -4.23202732	      0.81457061	      2.94767333	    -19.90669391	      9.05526066	      0.87305887	     34.86261699	      3.70400442	      1.88136336	     -0.10301931	    -44.21881153	      0.00000000	      0.00000000	      0.00000000	      0.00000000	      0.00000000	      0.00000000	      3.96175795	    -15.13561086	     -4.16943366	     13.81912037
      1.02916667	      7.54046783	      2.40081383	     -9.05422076	      0.45958858	      1.04032169	      0.29218482	     -4.45265135	      0.79970011	      2.98378758	    -19.81648785	      9.06770977	      0.92220749	     34.90777225	      4.16832179	      1.79272006	      0.16387176	    -43.42954052	      0.00000000	      0.00000000	      0.00000000	      0.00000000	      0.00000000	      0.00000000	      3.93156441	    -15.15529262	     -4.15071646	     13.85944372
      1.03333333	      7.49179368	      2.33509403	     -9.24972410	      0.46326893	      1.04042080	      0.29264460	     -4.65772550	      0.80958440	      2.98346441	    -19.74773260	      9.06875927	      0.96342343	     34.92878682	      4.67258062	      1.66666213	      0.37023410	    -42.71347068	      0.00000000	      0.00000000	      0.00000000	      0.00000000	      0.00000000	      0.00000000	      3.92958143	    -15.25325367	     -4.16454544	     13.88856289
      1.03750000	      7.30681253	      2.24808059	     -9.40410594	      0.46774953	      1.04053970	      0.29296946	     -4.94644504	      0.86108314	      3.16241052	    -19.33048846	      9.01912101	      1.14171331	     34.99290558	      5.13738261	      1.54042699	      0.77642997	    -41.71268850	      0.00000000	      0.00000000	      0.00000000	      0.00000000	      0.00000000	      0.00000000	      3.76990152	    -15.00945040	     -4.07995117	     14.02730546
      1.04166667	      6.99326658	      2.09559732	     -9.52067686	      0.47184759	      1.04036601	      0.29334757	     -5.08555531	      1.03970472	      3.41065482	    -18.90513529	      8.74033461	      1.23362642	     35.15055208	      5.85033548	      1.27801998	      1.08530903	    -40.92294127	      0.00000000	      0.00000000	      0.00000000	      0.00000000	      0.00000000	      0.00000000	      3.73392535	    -14.74753429	     -3.95336811	     14.30734201
      1.04583333	      6.63360987	      1.97869281	     -9.69784218	      0.47586806	      1.04002403	      0.29381110	     -5.08420414	      1.19197333	      3.68586481	    -18.65343959	      8.53663219	      0.83064205	     35.54071084	      6.59533229	      1.03597846	      1.34363628	    -40.08815207	      0.00000000	      0.00000000	      0.00000000	      0.00000000	      0.00000000	      0.00000000	      3.68152541	    -14.41456116	     -3.84770806	     14.48540188
      1.05000000	      6.54479475	      1.85771880	     -9.83866193	      0.47962564	      1.03995534	      0.29413988	     -5.28724877	      1.27472770	      3.74956334	    -18.55865564	      8.54027921	      0.89352185	     35.57294398	      7.04496390	      0.85390866	      1.68180258	    -39.19821693	      0.00000000	      0.00000000	      0.00000000	      0.00000000	      0.00000000	      0.00000000	      3.59690765	    -14.44520977	     -3.76497274	     14.52506818
      1.05416667	      6.41859005	      1.71860527	     -9.95935656	      0.48348499	      1.03980102	      0.29444690	     -5.48619895	      1.38720025	      3.81344923	    -18.41495640	      8.53707124	      0.95583772	     35.59552798	      7.51442098	      0.64238405	      2.02449591	    -38.28622646	      0.00000000	      0.00000000	      0.00000000	      0.00000000	      0.00000000	      0.00000000	      3.51978724	    -14.42343030	     -3.65198503	     14.57217712
      1.05833333	      5.89357156	      1.49016358	     -9.94787694	      0.48750914	      1.03917350	      0.29472542	     -5.46304297	      1.73884509	      4.17194527	    -17.91503990	      8.26164162	      0.48229500	     35.62872526	      8.45032284	      0.25114396	      2.44652128	    -37.49952359	      0.00000000	      0.00000000	      0.00000000	      0.00000000	      0.00000000	      0.00000000	      3.47837691	    -13.93622694	     -3.36673668	     14.63024717
